<svg width="116" height="113" viewBox="0 0 116 113" fill="none" xmlns="http://www.w3.org/2000/svg">
<path d="M95.8038 0H19.4564C8.71092 0 0 8.71092 0 19.4564V92.8477C0 103.593 8.71092 112.304 19.4564 112.304H95.8038C106.549 112.304 115.26 103.593 115.26 92.8477V19.4564C115.26 8.71092 106.549 0 95.8038 0Z" fill="#000B1D"/>
<path d="M28.0841 81.3238C27.6618 81.0825 27.5713 80.7507 27.5713 80.087V71.7917C27.5713 71.4599 27.8126 71.2789 28.1444 71.4599C32.3675 74.2049 37.3749 75.5321 41.9298 75.5321C48.4153 75.5321 51.1603 72.7871 51.1603 69.2277C51.1603 65.6682 49.3202 63.9186 43.2571 60.9323L39.6976 59.3637C30.1353 54.8692 27.5713 49.8014 27.5713 43.6478C27.5713 37.4941 33.8758 28.2637 45.9417 28.2637C58.0077 28.2637 55.2325 29.0178 57.7362 30.3451C58.1585 30.526 58.2491 30.8579 58.2491 31.3405V39.1532C58.2491 39.485 58.0077 39.8168 57.5854 39.485C54.5991 37.7355 50.3458 36.921 45.9417 36.921C39.1245 36.921 36.8923 39.9978 36.8923 42.8937C36.8923 45.7895 38.7323 48.0519 44.8558 50.8572L47.8421 52.1845C58.1586 56.9204 60.9639 62.0786 60.9639 68.383C60.9639 77.8548 53.5735 84.099 41.6885 84.099C29.8035 84.099 31.3118 83.1035 28.054 81.354L28.0841 81.3238Z" fill="white"/>
<path d="M87.3266 82.078C87.3266 82.5003 87.1456 82.8321 86.7535 82.9829C84.7626 83.8275 82.6812 84.0689 80.1172 84.0689C73.4809 84.0689 69.6499 80.7507 69.6499 72.757V50.5858H64.6727C64.1599 50.4953 64.0996 50.3445 64.0996 49.8316V43.0144C64.0996 42.5016 64.1901 42.3507 64.6727 42.3507H69.6499C69.8309 39.4549 70.0723 34.2967 70.4946 32.3662C70.5851 31.8533 70.7359 31.7025 71.1582 31.612L79.2122 30.5261C79.5441 30.4356 79.7854 30.4356 79.7854 30.9484C79.5441 33.5124 79.3631 38.0975 79.3631 42.3206H87.0853C87.5076 42.3206 87.6584 42.5016 87.6584 42.8937V49.9523C87.6584 50.3746 87.4774 50.4651 87.0853 50.5254H79.2726V70.7058C79.2726 74.2652 80.449 76.0148 83.7671 76.0148C87.0853 76.0148 85.758 75.8338 86.7535 75.5925C87.0853 75.5925 87.3266 75.683 87.3266 76.1053V82.0176V82.078Z" fill="white"/>
</svg>
