<svg width="519" height="104" viewBox="0 0 519 104" fill="none" xmlns="http://www.w3.org/2000/svg">
<path d="M3.73672 1.81785C1.91886 1.81785 1.41389 1.11089 1.41389 1.11089C1.00992 0.706923 1.11092 0 1.11092 0H0V12.927H1.11092C1.11092 12.1191 1.51489 11.6141 1.51489 11.6141C2.12084 10.8062 3.93871 10.9072 3.93871 10.9072H22.2183V54.6369C22.2183 56.3538 21.5114 56.6567 21.3094 56.6567C21.1074 56.6567 20.8044 56.7577 20.8044 56.7577C20.1985 56.7577 19.8955 56.7577 19.8955 56.7577V57.8687H35.5494V56.7577C35.5494 56.7577 35.2464 56.7577 34.6404 56.7577C34.6404 56.7577 34.2364 56.7577 34.1355 56.6567C34.0345 56.5558 33.2265 56.3538 33.2265 54.6369V10.9072H51.5062C51.5062 10.9072 53.324 10.9072 53.93 11.6141C53.93 11.6141 54.4349 12.0181 54.3339 12.927H55.4449V0H54.3339C54.3339 0 54.3339 0.706923 54.031 1.11089C54.031 1.11089 53.526 1.91884 51.7081 1.81785H3.73672Z" fill="black"/>
<path d="M132.401 1.81785C130.583 1.81785 130.078 1.11089 130.078 1.11089C129.674 0.706923 129.775 0 129.775 0H128.664V12.927H129.775C129.775 12.1191 130.179 11.6141 130.179 11.6141C130.785 10.8062 132.603 10.9072 132.603 10.9072H150.882V54.6369C150.882 56.3538 150.175 56.6567 149.973 56.6567C149.771 56.6567 149.468 56.7577 149.468 56.7577C148.862 56.7577 148.559 56.7577 148.559 56.7577V57.8687H164.213V56.7577C164.213 56.7577 163.91 56.7577 163.304 56.7577C163.304 56.7577 162.9 56.7577 162.799 56.6567C162.698 56.5558 161.89 56.3538 161.89 54.6369V10.9072H180.17C180.17 10.9072 181.988 10.9072 182.594 11.6141C182.594 11.6141 183.099 12.0181 182.998 12.927H184.109V0H182.998C182.998 0 182.998 0.706923 182.695 1.11089C182.695 1.11089 182.19 1.91884 180.372 1.81785H132.401Z" fill="black"/>
<path d="M398.109 1.81785C396.291 1.81785 395.786 1.11089 395.786 1.11089C395.382 0.706923 395.483 0 395.483 0H394.372V12.927H395.483C395.483 12.1191 395.887 11.6141 395.887 11.6141C396.493 10.8062 398.311 10.9072 398.311 10.9072H416.591V54.6369C416.591 56.3538 415.884 56.6567 415.682 56.6567C415.48 56.6567 415.177 56.7577 415.177 56.7577C414.571 56.7577 414.268 56.7577 414.268 56.7577V57.8687H429.922V56.7577C429.922 56.7577 429.619 56.7577 429.013 56.7577C429.013 56.7577 428.609 56.7577 428.508 56.6567C428.407 56.5558 427.599 56.3538 427.599 54.6369V10.9072H445.878C445.878 10.9072 447.696 10.9072 448.302 11.6141C448.302 11.6141 448.807 12.0181 448.706 12.927H449.817V0H448.706C448.706 0 448.706 0.706923 448.403 1.11089C448.403 1.11089 447.898 1.91884 446.08 1.81785H398.109Z" fill="black"/>
<path d="M437.302 73.7321C437.302 72.8231 437.706 72.6211 437.807 72.6211C437.908 72.6211 438.312 72.6211 438.312 72.6211C438.615 72.6211 438.817 72.6211 438.817 72.6211V72.0152H429.727V72.6211C429.727 72.6211 429.929 72.6211 430.232 72.6211C430.232 72.6211 430.434 72.6211 430.535 72.6211C430.636 72.6211 431.242 72.8231 431.242 73.7321V100.899C431.242 101.808 430.636 102.01 430.535 102.01C430.434 102.01 430.232 102.01 430.232 102.01C429.929 102.01 429.727 102.01 429.727 102.01V102.616H438.817V102.01C438.817 102.01 438.615 102.01 438.312 102.01H437.807C437.807 102.01 437.302 101.808 437.302 100.899V73.7321Z" fill="black"/>
<path d="M251.266 5.15402V54.6403C251.266 56.3572 251.973 56.6602 252.175 56.6602C252.377 56.6602 253.185 56.7612 253.185 56.7612C253.791 56.7612 254.094 56.7612 254.094 56.7612V57.8721H237.531V56.7612C237.531 56.7612 237.834 56.7612 238.44 56.7612C238.44 56.7612 238.844 56.7612 238.945 56.6602C239.147 56.6602 240.258 56.3572 240.258 54.6403V33.4319H205.314V54.6403C205.314 56.3572 206.021 56.6602 206.223 56.6602C206.425 56.6602 207.233 56.7612 207.233 56.7612C207.839 56.7612 208.142 56.7612 208.142 56.7612V57.8721H191.579V56.7612C191.579 56.7612 191.882 56.7612 192.488 56.7612C192.488 56.7612 192.892 56.7612 192.993 56.6602C193.195 56.6602 194.306 56.3572 194.306 54.6403V5.15402C194.306 3.43715 193.195 3.13417 192.993 3.13417C192.791 3.13417 192.488 3.0332 192.488 3.0332C191.882 3.0332 191.579 3.0332 191.579 3.0332V1.92228H208.142V3.0332C208.142 3.0332 207.839 3.0332 207.233 3.0332C207.233 3.0332 206.425 3.03318 206.223 3.13417C206.021 3.23516 205.314 3.43715 205.314 5.15402V23.7367H240.258V5.15402C240.258 3.43715 239.147 3.13417 238.945 3.13417C238.743 3.13417 238.44 3.0332 238.44 3.0332C237.834 3.0332 237.531 3.0332 237.531 3.0332V1.92228H254.094V3.0332C254.094 3.0332 253.791 3.0332 253.185 3.0332C253.185 3.0332 252.377 3.03318 252.175 3.13417C251.973 3.23516 251.266 3.43715 251.266 5.15402Z" fill="black"/>
<path d="M494.25 72.6211C494.553 72.6211 494.856 72.6211 494.856 72.6211V72.0152H485.868V72.6211C485.868 72.6211 486.575 72.6211 486.777 72.9241C486.777 72.9241 486.777 73.1261 486.878 73.4291C486.979 73.732 486.878 73.833 486.878 73.833V101C486.878 101 486.878 101.606 486.777 101.909C486.777 101.909 486.777 102.111 486.272 102.212C486.272 102.212 486.07 102.212 485.868 102.212V102.818H493.341V102.212C493.341 102.212 492.735 102.212 492.634 102.111C492.534 102.01 492.13 101.909 492.13 101V80.3975L511.318 101L511.722 101.505C511.722 101.505 512.025 101.808 511.924 102.111C511.823 102.414 511.924 102.313 511.621 102.313C511.318 102.313 511.116 102.313 511.116 102.313V102.919H518.893V102.313C518.893 102.313 518.186 102.313 517.984 102.01C517.984 102.01 517.984 101.808 517.883 101.505C517.782 101.202 517.883 101.101 517.883 101.101V73.934C517.883 73.934 517.883 73.732 517.883 73.5301C517.883 73.1261 518.186 72.9241 518.59 72.8231C518.59 72.8231 518.792 72.8231 518.994 72.8231V72.2172H511.419V72.8231C511.419 72.8231 512.025 72.8231 512.126 72.8231C512.227 72.8231 512.53 73.0251 512.53 73.934V93.4256L503.138 83.3263L500.31 80.2966L495.765 75.4489L494.149 73.7321C494.149 73.7321 493.745 73.3281 493.745 73.1261C493.745 72.9241 493.947 72.8231 494.25 72.7221V72.6211Z" fill="black"/>
<path d="M350.436 97.761C351.446 97.761 351.749 97.3571 351.749 97.3571C351.951 97.1551 351.951 96.7511 351.951 96.7511H352.557V103.821H351.951C351.951 103.316 351.749 103.114 351.749 103.114C351.446 102.71 350.436 102.71 350.436 102.71H323.572V102.104C323.572 102.104 323.774 102.104 324.077 102.104C324.077 102.104 324.279 102.104 324.38 102.104C324.481 102.104 325.087 101.902 325.087 100.993V73.8258C325.087 72.9169 324.481 72.7149 324.38 72.7149C324.279 72.7149 324.077 72.7149 324.077 72.7149C323.774 72.7149 323.572 72.7149 323.572 72.7149V72.1089H332.661V72.7149C332.661 72.7149 332.459 72.7149 332.156 72.7149H331.651C331.651 72.7149 331.147 72.9169 331.147 73.8258V97.761H350.638H350.436Z" fill="black"/>
<path d="M324.688 56.7645C324.082 56.5625 323.88 56.1585 323.88 56.1585L323.476 55.5526L321.759 51.9169L300.652 6.77323L299.743 4.85438C299.743 4.85438 299.642 4.4504 299.642 4.24842C299.642 4.04643 299.642 3.74346 300.046 3.33949C300.45 3.03651 301.258 2.93553 301.258 2.93553V1.8246H284.392V2.93553C284.392 2.93553 285.604 3.03651 285.907 3.74345C285.907 3.74345 286.109 4.14743 285.907 4.85438L263.992 54.1387C263.992 54.1387 263.386 55.4516 262.982 56.0576C262.982 56.0576 262.578 56.7645 261.568 56.9665H261.063V58.0774H274.798V56.9665C274.798 56.9665 273.586 56.9665 273.687 55.6536C273.687 55.6536 273.687 55.3506 274.091 54.4417L276.212 50.099L279.342 43.2315H292.068H305.802L308.327 48.5841L310.65 53.4318C310.65 53.4318 311.66 55.4516 311.66 56.1585C311.66 56.1585 311.66 56.7645 310.852 56.8655C310.852 56.8655 310.65 56.8655 310.549 56.8655C310.448 56.8655 310.347 56.8655 310.347 56.8655V57.9764H325.698V56.8655C325.698 56.8655 325.294 56.8655 324.688 56.7645ZM282.978 34.4452L292.068 14.1457L301.359 34.4452H282.978Z" fill="black"/>
<path d="M123.302 56.7645C122.696 56.5625 122.494 56.1585 122.494 56.1585L122.09 55.5526L120.373 51.9169L99.2657 6.77323L98.3568 4.85438C98.3568 4.85438 98.2558 4.4504 98.2558 4.24842C98.2558 4.04643 98.2558 3.74346 98.6597 3.33949C99.0637 3.03651 99.8716 2.93553 99.8716 2.93553V1.8246H83.0059V2.93553C83.0059 2.93553 84.2178 3.03651 84.5208 3.74345C84.5208 3.74345 84.7228 4.14743 84.5208 4.85438L62.6054 54.1387C62.6054 54.1387 61.9995 55.4516 61.5955 56.0576C61.5955 56.0576 61.1915 56.7645 60.1816 56.9665H59.6766V58.0774H73.4116V56.9665C73.4116 56.9665 72.1997 56.9665 72.3007 55.6536C72.3007 55.6536 72.3007 55.3506 72.7047 54.4417L74.8255 50.099L77.9563 43.2315H90.6813H104.416L106.941 48.5841L109.264 53.4318C109.264 53.4318 110.274 55.4516 110.274 56.1585C110.274 56.1585 110.274 56.7645 109.466 56.8655C109.466 56.8655 109.264 56.8655 109.163 56.8655C109.062 56.8655 108.961 56.8655 108.961 56.8655V57.9764H124.312V56.8655C124.312 56.8655 123.908 56.8655 123.302 56.7645ZM81.592 34.4452L90.6813 14.1457L99.9726 34.4452H81.592Z" fill="black"/>
<path d="M396.595 71.9077C395.585 71.9077 395.282 71.5037 395.282 71.5037C395.08 71.3017 395.08 70.8978 395.08 70.8978H394.474V77.9672H395.08C395.08 77.4623 395.282 77.2603 395.282 77.2603C395.585 76.8563 396.595 76.8563 396.595 76.8563H406.593V100.792C406.593 101.7 406.189 101.902 406.088 101.902C405.987 101.902 405.785 101.902 405.785 101.902C405.482 101.902 405.28 101.902 405.28 101.902V102.508H413.864V101.902C413.864 101.902 413.662 101.902 413.359 101.902C413.359 101.902 413.157 101.902 413.056 101.902C412.955 101.902 412.551 101.7 412.551 100.792V76.8563H422.55C422.55 76.8563 423.56 76.8563 423.863 77.2603C423.863 77.2603 424.166 77.4623 424.065 77.9672H424.67V70.8978H424.065C424.065 70.8978 424.065 71.3017 423.863 71.5037C423.863 71.5037 423.56 71.9077 422.55 71.9077H396.292H396.595Z" fill="black"/>
<path d="M462.444 71.5073C451.335 71.5073 444.871 78.5767 444.871 87.2621C444.871 95.9474 450.729 103.118 462.444 103.118C474.159 103.118 480.218 95.9474 480.218 87.2621C480.218 78.5767 473.856 71.5073 462.444 71.5073ZM462.444 98.1693C454.768 98.1693 450.931 93.2206 450.931 87.2621C450.931 81.3035 455.374 76.5569 462.444 76.5569C469.513 76.5569 474.159 81.3035 474.159 87.2621C474.159 93.2206 470.422 98.1693 462.444 98.1693Z" fill="black"/>
<path d="M300.351 71.5073C289.242 71.5073 282.778 78.5767 282.778 87.2621C282.778 95.9474 288.636 103.118 300.351 103.118C312.066 103.118 318.126 95.9474 318.126 87.2621C318.126 78.5767 311.763 71.5073 300.351 71.5073ZM300.351 98.1693C292.676 98.1693 288.838 93.2206 288.838 87.2621C288.838 81.3035 293.282 76.5569 300.351 76.5569C307.421 76.5569 312.066 81.3035 312.066 87.2621C312.066 93.2206 308.329 98.1693 300.351 98.1693Z" fill="black"/>
<path d="M495.47 58.4814C499.913 57.9764 502.842 57.1685 502.842 57.1685C508.902 55.6536 512.134 52.2198 512.134 52.2198C517.183 47.9782 516.88 38.8889 516.88 38.8889V5.8643C516.88 4.65239 516.88 4.24842 516.88 4.24842C516.981 3.44048 517.486 3.23849 517.486 3.23849C517.991 2.93551 519.001 2.93553 519.001 2.93553V1.8246H503.65V2.93553C503.65 2.93553 504.66 2.93551 505.165 3.23849C505.165 3.23849 505.67 3.44049 505.872 4.45041C505.872 4.45041 505.872 5.05636 505.872 5.7633V37.6769C505.872 37.6769 505.872 40.6057 505.165 42.8276C504.458 45.0494 503.145 46.1603 503.145 46.1603C503.145 46.1603 502.337 46.9682 501.125 47.6752C501.125 47.6752 498.197 49.0891 494.763 49.4931C487.693 50.301 482.038 49.4931 482.038 49.4931C478.503 49.1901 475.675 47.6752 475.675 47.6752C474.463 46.9682 473.655 46.1603 473.655 46.1603C473.655 46.1603 472.343 45.0494 471.636 42.8276C470.929 40.6057 470.929 37.6769 470.929 37.6769V5.7633C470.929 5.05636 470.929 4.45041 470.929 4.45041C471.03 3.3395 471.636 3.23849 471.636 3.23849C472.141 2.93551 473.15 2.93553 473.15 2.93553V1.8246H457.8V2.93553C457.8 2.93553 458.81 2.93551 459.314 3.23849C459.314 3.23849 459.718 3.44048 459.92 4.24842C459.92 4.24842 460.021 4.65239 459.92 5.8643V38.8889C459.92 38.8889 459.617 47.9782 464.667 52.2198C464.667 52.2198 467.899 55.6536 473.958 57.1685C473.958 57.1685 476.887 58.0774 481.331 58.4814C481.331 58.4814 489.208 59.1883 495.268 58.4814H495.47Z" fill="black"/>
<path d="M377.102 102.914C379.526 102.611 381.142 102.207 381.142 102.207C384.475 101.399 386.192 99.4801 386.192 99.4801C389.019 97.1572 388.817 92.2086 388.817 92.2086V74.1309C388.817 73.525 388.817 73.222 388.817 73.222C388.817 72.7171 389.12 72.6161 389.12 72.6161C389.423 72.4141 389.928 72.4141 389.928 72.4141V71.8081H381.546V72.4141C381.546 72.4141 382.152 72.4141 382.354 72.6161C382.354 72.6161 382.657 72.616 382.758 73.323C382.758 73.323 382.758 73.626 382.758 74.0299V91.5016C382.758 91.5016 382.758 93.1175 382.354 94.3294C381.95 95.5413 381.243 96.1473 381.243 96.1473C381.243 96.1473 380.839 96.5513 380.132 96.9553C380.132 96.9553 378.516 97.6622 376.597 97.9652C372.76 98.3691 369.629 97.9652 369.629 97.9652C367.71 97.8642 366.094 96.9553 366.094 96.9553C365.488 96.5513 364.983 96.1473 364.983 96.1473C364.983 96.1473 364.276 95.5413 363.872 94.3294C363.468 93.1175 363.468 91.5016 363.468 91.5016V74.0299C363.468 73.626 363.468 73.323 363.468 73.323C363.468 72.717 363.872 72.6161 363.872 72.6161C364.175 72.4141 364.68 72.4141 364.68 72.4141V71.8081H356.298V72.4141C356.298 72.4141 356.803 72.4141 357.106 72.6161C357.106 72.6161 357.308 72.7171 357.409 73.222C357.409 73.222 357.409 73.424 357.409 74.1309V92.2086C357.409 92.2086 357.207 97.1572 360.034 99.4801C360.034 99.4801 361.852 101.399 365.084 102.207C365.084 102.207 366.7 102.712 369.124 102.914C369.124 102.914 373.365 103.318 376.698 102.914H377.102Z" fill="black"/>
<path d="M2.01985 72.0093C1.00992 72.0093 0.706947 71.6053 0.706947 71.6053C0.504962 71.4033 0.504962 70.9993 0.504962 70.9993H0V78.0688H0.605955C0.605955 77.5638 0.80794 77.3619 0.80794 77.3619C1.11092 76.9579 2.12084 76.9579 2.12084 76.9579H12.1191V100.893C12.1191 101.802 11.7151 102.004 11.6141 102.004C11.5131 102.004 11.3112 102.004 11.3112 102.004C11.0082 102.004 10.8062 102.004 10.8062 102.004V102.61H19.3906V102.004C19.3906 102.004 19.1886 102.004 18.8856 102.004C18.8856 102.004 18.6836 102.004 18.5826 102.004C18.4816 102.004 18.0777 101.802 18.0777 100.893V76.9579H28.0759C28.0759 76.9579 29.0858 76.9579 29.3888 77.3619C29.3888 77.3619 29.6918 77.5638 29.5908 78.0688H30.1967V70.9993H29.5908C29.5908 70.9993 29.5908 71.4033 29.3888 71.6053C29.3888 71.6053 29.0858 72.0093 28.0759 72.0093H2.01985Z" fill="black"/>
<path d="M142.197 73.8258V100.993C142.197 101.902 142.601 102.104 142.702 102.104H143.207C143.51 102.104 143.712 102.104 143.712 102.104V102.71H134.623V102.104C134.623 102.104 134.825 102.104 135.128 102.104C135.128 102.104 135.33 102.104 135.431 102.104C135.431 102.104 136.138 101.902 136.138 100.993V89.3787H116.949V100.993C116.949 101.902 117.353 102.104 117.454 102.104H117.959C118.262 102.104 118.464 102.104 118.464 102.104V102.71H109.375V102.104C109.375 102.104 109.577 102.104 109.88 102.104C109.88 102.104 110.082 102.104 110.183 102.104C110.183 102.104 110.889 101.902 110.889 100.993V73.8258C110.889 72.9169 110.284 72.7149 110.183 72.7149H109.88C109.577 72.7149 109.375 72.7149 109.375 72.7149V72.1089H118.464V72.7149C118.464 72.7149 118.262 72.7149 117.959 72.7149H117.454C117.454 72.7149 116.949 72.9169 116.949 73.8258V84.026H136.138V73.8258C136.138 72.9169 135.532 72.7149 135.431 72.7149H135.128C134.825 72.7149 134.623 72.7149 134.623 72.7149V72.1089H143.712V72.7149C143.712 72.7149 143.51 72.7149 143.207 72.7149H142.702C142.702 72.7149 142.197 72.9169 142.197 73.8258Z" fill="black"/>
<path d="M158.453 72.6211C158.756 72.6211 159.059 72.6211 159.059 72.6211V72.0152H150.071V72.6211C150.071 72.6211 150.778 72.6211 150.98 72.9241C150.98 72.9241 150.98 73.1261 151.081 73.4291C151.182 73.732 151.081 73.833 151.081 73.833V101C151.081 101 151.081 101.606 150.98 101.909C150.98 101.909 150.98 102.111 150.475 102.212C150.475 102.212 150.273 102.212 150.071 102.212V102.818H157.544V102.212C157.544 102.212 156.938 102.212 156.837 102.111C156.736 102.01 156.332 101.909 156.332 101V80.3975L175.521 101L175.925 101.505C175.925 101.505 176.228 101.808 176.127 102.111C176.026 102.414 176.127 102.313 175.824 102.313C175.521 102.313 175.319 102.313 175.319 102.313V102.919H183.095V102.313C183.095 102.313 182.388 102.313 182.186 102.01C182.186 102.01 182.186 101.808 182.085 101.505C181.984 101.202 182.085 101.101 182.085 101.101V73.934C182.085 73.934 182.085 73.732 182.085 73.5301C182.085 73.1261 182.388 72.9241 182.792 72.8231C182.792 72.8231 182.994 72.8231 183.196 72.8231V72.2172H175.622V72.8231C175.622 72.8231 176.228 72.8231 176.329 72.8231C176.43 72.8231 176.733 73.0251 176.733 73.934V93.4256L167.34 83.3263L164.513 80.2966L159.968 75.4489L158.352 73.7321C158.352 73.7321 157.948 73.3281 157.948 73.1261C157.948 72.9241 158.15 72.8231 158.453 72.7221V72.6211Z" fill="black"/>
<path d="M64.6395 96.7524V103.822H64.0336C64.0336 103.317 63.8316 103.115 63.8316 103.115C63.5286 102.711 62.5187 102.711 62.5187 102.711H34.8467V102.105C34.8467 102.105 34.6447 102.105 34.9477 102.105C34.9477 102.105 35.1497 102.105 35.2507 102.105C35.3517 102.105 35.9576 101.903 35.9576 100.994V73.8271C35.9576 72.9182 35.3517 72.7162 35.2507 72.7162C35.1497 72.7162 34.9477 72.7162 34.9477 72.7162C34.6447 72.7162 34.8467 72.7162 34.8467 72.7162V72.1103H62.2157C62.2157 72.1103 63.2256 72.1103 63.5286 71.7063C63.5286 71.7063 63.8316 71.5043 63.7306 70.9993H64.3365V78.2708H63.7306C63.7306 78.2708 63.7306 77.8668 63.5286 77.6648C63.5286 77.6648 63.2256 77.2609 62.2157 77.2609H41.9162V84.4313H54.9442C54.9442 84.4313 55.9542 84.4313 56.2571 84.0274C56.2571 84.0274 56.5601 83.8254 56.4591 83.3204H57.0651V90.5919H56.4591C56.4591 90.5919 56.4591 90.1879 56.2571 89.9859C56.2571 89.9859 55.9542 89.5819 54.9442 89.5819H41.7142V97.7623H62.3167C63.3266 97.7623 63.6296 97.3584 63.6296 97.3584C63.8316 97.1564 63.8316 96.7524 63.8316 96.7524H64.4375H64.6395Z" fill="black"/>
<path d="M206.425 71.5073C195.316 71.5073 188.852 78.5767 188.852 87.2621C188.852 95.9474 194.71 103.118 206.425 103.118C218.14 103.118 224.2 95.9474 224.2 87.2621C224.2 78.5767 217.837 71.5073 206.425 71.5073ZM206.425 98.1693C198.75 98.1693 194.912 93.2206 194.912 87.2621C194.912 81.3035 199.356 76.5569 206.425 76.5569C213.494 76.5569 218.14 81.3035 218.14 87.2621C218.14 93.2206 214.403 98.1693 206.425 98.1693Z" fill="black"/>
<path d="M69.9844 83.4238C72.7112 73.2235 84.4263 71.8096 84.4263 71.8096C84.4263 71.8096 85.3353 71.6077 86.9511 71.5067C89.7789 71.4057 92.6067 71.7086 95.3335 72.4156L96.5454 72.7186C98.1613 73.1226 101.292 74.5364 101.292 74.5364C101.696 74.6374 101.797 74.7384 102.201 74.6374C102.605 74.5364 102.807 74.1325 102.807 74.1325L103.413 74.3344L99.2722 81.1009L98.6663 80.798C98.6663 80.798 98.7673 80.192 98.6663 79.889C98.6663 79.889 98.3633 79.4851 97.8583 79.0811C97.8583 79.0811 92.9097 75.7483 86.4462 76.4553C86.4462 76.4553 82.6085 76.7583 80.1846 78.2732C78.1648 79.5861 76.4479 81.5049 75.842 84.3327C75.842 84.7367 75.539 86.0496 75.539 86.8575C75.539 88.5744 75.842 91.6041 77.8618 94.028C79.8817 96.4518 79.1747 95.3409 79.7807 95.7449C81.1946 96.6538 84.3253 98.1687 89.6779 97.9667C89.6779 97.9667 95.2325 97.9667 99.1712 94.129C99.1712 94.129 100.181 93.119 99.5752 92.0081L99.9792 91.7052L104.322 97.9667L104.019 98.1687C104.019 98.1687 103.615 97.7647 102.605 98.4717C102.605 98.4717 99.0702 101.097 96.5454 101.804C96.5454 101.804 89.375 104.531 80.6896 101.905C80.6896 101.905 77.1549 100.895 74.3271 98.3707C71.4993 95.8459 70.3884 92.6141 70.3884 92.6141C70.3884 92.6141 69.3784 90.1903 69.5804 86.3526C69.5804 86.3526 69.5804 85.5446 69.6814 85.0396C69.7824 84.5347 69.7824 84.2317 69.8834 84.0297C69.8834 83.7267 70.0854 83.4238 70.0854 83.3228L69.9844 83.4238Z" fill="black"/>
<path d="M277.936 74.6358L274.704 80.9983L273.997 80.5944C273.997 80.5944 274.199 79.9884 273.695 79.5845C273.695 79.5845 272.483 78.1706 268.039 77.0596C268.039 77.0596 265.312 76.2517 260.868 76.6557C260.868 76.6557 257.839 76.8577 255.718 78.0696C255.718 78.0696 254.001 78.9785 253.799 80.6954C253.799 80.6954 253.294 82.8162 255.617 83.4222C255.617 83.4222 256.93 84.0281 261.171 84.0281H265.817C265.817 84.0281 269.049 84.1291 271.473 84.7351C273.897 85.341 276.926 86.553 278.138 89.8857C278.138 89.8857 279.148 92.5115 278.239 95.7433C277.33 98.975 273.997 100.692 273.997 100.692C273.997 100.692 269.655 103.52 260.768 103.217C260.162 103.217 255.617 103.015 252.082 101.702C252.082 101.702 250.567 101.197 248.85 100.187L248.446 99.985C248.446 99.985 248.042 99.682 247.537 100.288H247.033C247.033 100.187 250.567 93.0164 250.567 93.0164L251.274 93.3194C251.274 93.3194 250.769 94.4303 251.88 95.5413C252.991 96.6522 254.607 97.1571 254.607 97.1571C254.607 97.1571 258.041 98.4701 262.282 98.3691C266.524 98.3691 268.948 97.7631 270.665 96.6522C272.382 95.5413 272.483 94.2284 272.382 93.4204C272.382 93.4204 272.382 92.3095 271.271 91.6026C271.271 91.6026 270.261 90.2897 264.403 90.1887C264.403 90.1887 258.647 90.1887 257.132 89.8857C255.617 89.5827 250.567 89.4817 248.547 85.644C248.547 85.644 247.134 83.0182 248.143 79.2815C248.143 79.2815 248.749 76.8576 251.577 74.8378C254.405 72.8179 258.243 72.212 260.868 72.01C263.494 71.808 266.322 71.707 271.069 73.0199C271.069 73.0199 273.997 73.8279 276.017 74.9388C276.017 74.9388 276.825 75.3428 277.229 74.8378L277.936 75.0398V74.6358Z" fill="black"/>
<path d="M387.403 6.76518L381.445 18.3793L380.233 17.6724C380.233 17.6724 380.637 16.5614 379.728 15.7535C379.728 15.7535 377.506 13.1277 369.326 11.1079C369.326 11.1079 364.276 9.69397 356.298 10.2999C356.298 10.2999 350.642 10.6029 346.905 12.8247C346.905 12.8247 343.775 14.5416 343.27 17.6724C343.27 17.6724 342.361 21.5101 346.602 22.722C346.602 22.722 348.925 23.7319 356.702 23.8329H365.185C365.185 23.8329 371.144 24.0349 375.587 25.0448C380.031 26.0548 385.586 28.4786 387.706 34.4371C387.706 34.4371 389.625 39.2848 387.908 45.1423C386.192 50.9999 380.233 54.1306 380.233 54.1306C380.233 54.1306 372.255 59.3823 356.096 58.6753C339.937 57.9684 346.703 58.2714 340.24 55.9485C340.24 55.9485 337.513 55.0396 334.281 53.2217L333.574 52.9188C333.574 52.9188 332.767 52.4138 331.959 53.4237L330.949 53.2217L337.311 40.0927L338.523 40.6987C338.523 40.6987 337.614 42.7185 339.634 44.6374C341.654 46.5562 344.583 47.4652 344.583 47.4652C344.583 47.4652 350.743 49.788 358.52 49.687C366.296 49.586 370.639 48.5761 373.769 46.5562C376.9 44.5364 377.001 42.2135 376.9 40.5977C376.9 40.5977 376.799 38.4768 374.981 37.1639C374.981 37.1639 373.163 34.7401 362.559 34.5381C362.559 34.5381 352.056 34.4371 349.329 34.0332C346.602 33.6292 337.311 33.3262 333.574 26.1558C333.574 26.1558 330.949 21.4091 332.868 14.5416C332.868 14.5416 333.877 10.0979 339.129 6.46222C344.28 2.82649 351.248 1.61457 355.995 1.3116C360.741 1.00862 365.993 0.70563 374.678 3.12945C374.678 3.12945 379.93 4.64434 383.667 6.66419C383.667 6.66419 385.182 7.47214 385.99 6.46222L387.201 6.76518H387.403Z" fill="black"/>
</svg>
