<svg width="227" height="207" viewBox="0 0 227 207" fill="none" xmlns="http://www.w3.org/2000/svg">
<path d="M173.342 37.5976C168.711 28.5958 162.057 20.7028 153.904 14.6364C153.251 14.0493 152.273 13.9841 151.555 14.3102C150.773 14.7016 150.316 15.4844 150.251 16.3324V40.533C150.251 44.9034 146.598 48.4911 142.227 48.4911H124.354C123.115 48.4911 122.071 49.4695 122.071 50.7742V105.894C120.375 106.742 119.266 108.438 119.266 110.46C119.266 112.482 121.549 115.548 124.354 115.548C127.159 115.548 129.442 113.265 129.442 110.46C129.442 107.655 128.268 106.742 126.637 105.894V53.0572H142.227C149.142 53.0572 154.686 47.4474 154.686 40.5982V21.1595C160.688 26.3779 165.71 32.7053 169.298 39.7502C173.799 48.5563 176.082 58.0148 176.082 67.9298C176.082 82.1501 171.385 95.5224 162.514 106.612C154.882 116.135 144.576 123.245 133.095 126.898C131.921 125.594 130.16 124.941 128.333 125.333C125.594 125.92 123.767 128.594 124.354 131.334C124.941 134.074 127.616 135.9 130.355 135.313C132.443 134.922 133.943 133.226 134.334 131.269C146.728 127.29 157.883 119.658 166.102 109.416C175.625 97.5445 180.648 83.1938 180.648 67.9298C180.648 52.6658 178.169 47.1212 173.342 37.6628V37.5976Z" fill="url(#paint0_linear_40_6108)"/>
<path d="M103.874 48.4893H86.001C81.6305 48.4893 78.0428 44.9016 78.0428 40.5312C78.0428 36.1607 81.6305 32.573 86.001 32.573H122.4C123.248 34.269 124.944 35.378 126.966 35.378C128.988 35.378 132.054 33.0949 132.054 30.29C132.054 27.4851 129.771 25.202 126.966 25.202C124.161 25.202 123.248 26.3761 122.4 28.0069H86.001C79.0865 28.0069 73.5419 33.6167 73.5419 40.466C73.5419 47.3152 79.1518 52.925 86.001 52.925H101.591V128.462C88.2841 125.722 76.0859 118.547 67.1493 108.175C57.4952 96.9557 52.2115 82.6049 52.2115 67.8628C52.2115 33.7472 79.9998 5.95895 114.115 5.95895C148.231 5.95895 119.53 6.15464 122.204 6.4808C122.726 8.17679 124.03 9.54664 125.857 10.0033C128.597 10.6556 131.336 9.02479 131.989 6.28511C132.641 3.54542 131.01 0.805733 128.27 0.153426C126.183 -0.368418 124.161 0.47958 122.987 2.11035C120.051 1.71896 117.116 1.52327 114.115 1.52327C77.4558 1.52327 47.6454 31.3337 47.6454 67.9933C47.6454 104.653 53.3204 99.2387 63.6921 111.306C73.9333 123.178 88.0231 131.137 103.418 133.615C103.548 133.615 103.678 133.615 103.809 133.615C104.331 133.615 104.853 133.42 105.244 133.093C105.766 132.637 106.027 132.05 106.027 131.397V50.9028C106.027 49.6635 105.048 48.6198 103.744 48.6198L103.874 48.4893Z" fill="url(#paint1_linear_40_6108)"/>
<path d="M26.5141 127.883C26.775 128.731 27.0359 129.514 27.3621 130.362C27.9491 130.036 28.1448 129.253 27.8839 128.6C27.623 128.079 27.0359 127.818 26.5141 127.883Z" fill="url(#paint2_linear_40_6108)"/>
<path d="M43.5359 141.382C46.0146 144.709 49.9937 147.253 53.0595 148.753L56.0601 150.188C55.0817 148.166 54.038 146.144 53.0595 144.122C51.8201 144.448 50.5155 143.796 49.9284 142.687C49.9284 142.687 49.9284 142.687 49.9284 142.621C49.9284 142.621 49.9284 142.621 49.9284 142.556C49.3414 141.186 49.9284 139.556 51.2331 138.838C52.6029 138.121 54.3641 138.838 55.0164 140.143C55.6687 141.317 55.2121 142.752 54.2337 143.6C55.0164 145.165 55.7992 146.796 56.582 148.362C57.0386 149.275 57.4952 150.188 57.9518 151.101L65.5838 154.82C66.497 152.21 67.345 149.536 68.2583 146.927C68.8453 145.231 69.4324 143.535 70.0195 141.773C66.1056 140.338 62.0613 138.838 57.8214 137.207C55.1469 136.164 50.7112 134.141 48.6238 133.554C47.9063 133.359 46.6017 133.098 46.406 133.033C45.4275 135.837 44.5143 138.577 43.6011 141.317L43.5359 141.382Z" fill="url(#paint3_linear_40_6108)"/>
<path d="M41.903 138.384C42.4901 136.623 43.1424 134.796 43.7294 132.97C43.5338 133.035 41.1855 133.948 41.3159 135.97C41.3159 136.818 41.5768 137.666 41.8378 138.449C41.8378 138.449 41.8378 138.449 41.8378 138.384H41.903Z" fill="url(#paint4_linear_40_6108)"/>
<path d="M51.7518 139.943C50.969 140.335 50.7081 141.248 51.0343 142.031C51.4257 142.813 52.3389 143.14 53.1217 142.748C53.9044 142.357 54.1653 141.444 53.8392 140.661C53.4478 139.878 52.5346 139.617 51.7518 139.943Z" fill="url(#paint5_linear_40_6108)"/>
<path d="M96.5026 183.13C96.1112 182.347 95.7198 181.564 95.3284 180.781C91.6755 179.542 88.0226 178.303 84.4349 177.063C83.7826 176.868 83.1955 176.607 82.5432 176.411C82.1518 176.28 82.0214 175.889 81.8257 175.498C80.8472 173.541 79.934 171.584 78.9555 169.692C77.5857 166.887 76.1506 164.082 74.7808 161.212C73.998 161.408 73.2153 161.212 72.563 160.756C72.1716 161.277 71.3888 161.604 70.0842 161.277L66.366 160.495C66.366 160.625 66.3008 160.756 66.2356 160.886C64.8657 164.8 63.5611 168.779 62.1913 172.693C63.9525 176.215 65.6485 179.738 67.4097 183.26C68.3882 185.217 69.3667 187.174 70.2799 189.131C73.7371 190.501 77.0639 192.001 79.8688 194.088C79.9992 193.762 80.1297 193.371 80.1949 193.045L80.8472 191.088C79.1512 187.696 77.5205 184.304 75.8245 180.847C74.5199 178.237 73.2153 175.563 71.9106 172.954C70.6713 173.28 69.3667 172.628 68.7796 171.519C68.7796 171.519 68.7796 171.519 68.7796 171.453C68.7796 171.453 68.7796 171.453 68.7796 171.388C68.1925 169.953 68.7796 168.388 70.0842 167.67C71.454 166.952 73.15 167.67 73.8676 168.975C74.5199 170.149 74.0633 171.584 73.0848 172.432C74.7156 175.759 76.3463 179.085 77.9771 182.412C79.0208 184.565 80.1297 186.783 81.1734 188.935C81.4343 189.522 81.6952 190.044 82.0214 190.631C82.0866 190.827 82.2171 190.957 82.2171 191.153C82.2171 191.283 82.1519 191.479 82.0866 191.61C81.6952 192.719 81.3691 193.827 80.9777 194.936C84.3045 197.611 86.9789 201.133 88.6749 206.091C89.0663 204.982 89.4577 203.808 89.8491 202.699C92.0017 196.306 94.1543 189.914 96.3721 183.521C96.3721 183.391 96.5026 183.26 96.5026 183.064V183.13Z" fill="url(#paint6_linear_40_6108)"/>
<path d="M73.4134 157.036C72.8263 157.297 72.5001 157.949 72.5654 158.601C72.6958 158.862 72.8263 159.123 72.8915 159.384C73.3481 159.971 74.1309 160.167 74.8484 159.841C75.6312 159.449 75.8921 158.536 75.566 157.753C75.1746 156.97 74.2614 156.709 73.4786 157.036H73.4134Z" fill="url(#paint7_linear_40_6108)"/>
<path d="M48.3623 156.84C49.7974 159.775 51.2324 162.71 52.7327 165.646C53.5807 163.167 54.4287 160.753 55.2115 158.275L48.3623 156.84Z" fill="url(#paint8_linear_40_6108)"/>
<path d="M35.5764 162.19C35.0546 163.756 34.5327 165.387 33.9457 166.952L35.8374 170.866C39.2294 172.04 42.6213 173.149 45.9481 174.323C49.2096 175.432 52.4712 176.541 55.7327 177.65C53.4496 173.019 51.1665 168.322 48.8182 163.691C47.5789 161.212 46.4047 158.733 45.1653 156.254L41.3167 155.472C40.2078 155.211 39.1641 154.95 38.1204 154.689C38.1204 154.754 38.1204 154.819 38.0552 154.885C37.2072 157.363 36.3592 159.777 35.5764 162.256V162.19Z" fill="url(#paint9_linear_40_6108)"/>
<path d="M101.785 161.47C100.546 165.188 99.3063 168.841 98.0017 172.559C97.4798 174.125 96.958 175.69 96.4361 177.256C97.0232 178.43 97.6103 179.604 98.1973 180.778C98.654 181.626 99.3715 182.605 99.0453 183.649C98.3278 185.736 97.6103 187.823 96.8927 189.911C94.9358 195.586 93.0441 201.261 91.0872 207.001C104.199 198.26 111.896 177.386 101.785 161.535V161.47Z" fill="url(#paint10_linear_40_6108)"/>
<path d="M70.6031 168.906C69.8204 169.297 69.5594 170.21 69.8856 170.993C70.277 171.776 71.1902 172.037 71.973 171.711C72.7557 171.319 73.0167 170.406 72.6905 169.623C72.2991 168.841 71.3859 168.58 70.6031 168.906Z" fill="url(#paint11_linear_40_6108)"/>
<path d="M85.0869 147.84C84.6956 147.645 84.3042 147.449 83.8476 147.253C84.2389 147.449 84.6956 147.645 85.0869 147.84Z" fill="url(#paint12_linear_40_6108)"/>
<path d="M86.7185 151.229C86.8489 151.555 86.7185 151.881 86.588 152.207C85.0877 156.708 83.5222 161.209 82.0219 165.71C81.5 167.145 81.0434 168.646 80.5215 170.081C80.7172 170.537 80.9129 170.929 81.1739 171.385C81.8262 172.69 82.4785 173.994 83.1308 175.299C86.9141 176.604 90.7628 177.908 94.5461 179.148C94.1547 178.365 93.6329 177.582 93.8938 176.734C94.5461 174.842 95.1984 172.951 95.8507 171.059C97.2206 167.015 98.5904 162.97 99.9603 158.926C96.8944 155.078 92.7197 151.62 87.1098 148.815C86.4575 148.489 85.74 148.163 85.0877 147.837C85.2182 148.163 85.4138 148.489 85.5443 148.75C85.9357 149.533 86.3271 150.381 86.7185 151.164V151.229Z" fill="url(#paint13_linear_40_6108)"/>
<path d="M69.175 156.577C69.5664 156.773 70.0882 156.968 70.5448 157.229C70.8058 157.36 71.1319 157.49 71.3928 157.686C71.5885 156.968 72.1104 156.381 72.8279 155.99C74.1977 155.272 75.8937 155.99 76.6113 157.295C77.2636 158.469 76.807 159.904 75.8285 160.752C77.1984 163.557 78.5682 166.362 79.938 169.101C81.047 165.774 82.2211 162.448 83.33 159.056C84.178 156.577 85.026 154.033 85.874 151.554C85.1565 150.119 84.5042 148.749 83.7866 147.314C80.199 145.683 76.3504 144.248 72.3061 142.748C70.8057 147.184 69.3054 151.619 67.8051 156.055L69.1098 156.707L69.175 156.577Z" fill="url(#paint14_linear_40_6108)"/>
<path d="M47.3196 176.017C43.3405 174.647 39.3615 173.342 35.4476 171.973C35.1215 171.842 34.9258 171.646 34.7953 171.32C34.4692 170.668 34.143 170.016 33.8169 169.298C32.6427 166.95 31.5338 164.667 30.3596 162.319C29.3159 160.166 28.2723 158.079 27.2286 155.991C25.9892 156.252 24.6846 155.665 24.0975 154.556C24.0975 154.556 24.0975 154.556 24.0975 154.491C24.0975 154.491 24.0975 154.491 24.0975 154.426C23.5104 152.991 24.0975 151.425 25.4021 150.707C26.7719 149.99 28.4679 150.707 29.1855 152.012C29.8378 153.186 29.3812 154.621 28.4027 155.469C30.0987 158.992 31.8599 162.449 33.5559 165.906C34.7953 162.319 35.9695 158.731 37.2088 155.143C37.2741 154.882 37.4045 154.621 37.4698 154.36C36.2304 154.034 35.1215 153.643 34.0778 153.251C32.1209 152.599 30.2292 151.49 27.4895 149.338C24.4889 147.055 21.9449 144.445 19.8575 141.314C19.988 141.575 20.1184 141.836 20.2489 142.162C20.4446 142.488 20.3141 142.749 20.2489 143.075C19.9227 143.923 19.6618 144.837 19.3357 145.685C18.4877 148.163 17.6397 150.707 16.7917 153.186C16.6612 153.512 16.596 153.839 16.4655 154.165C16.596 154.295 16.7264 154.426 16.7917 154.621C18.879 158.796 20.9664 163.036 22.9886 167.211C23.9018 169.037 24.7498 170.864 25.663 172.69C34.0778 176.278 47.9719 181.301 58.5393 185.149C58.9306 185.28 59.322 185.41 59.7134 185.606C58.6697 183.518 57.626 181.366 56.5823 179.278C53.5165 178.235 50.3854 177.191 47.3196 176.147V176.017Z" fill="url(#paint15_linear_40_6108)"/>
<path d="M14.445 155.724C14.445 155.594 14.3798 155.529 14.3145 155.398C12.1619 154.681 9.94408 153.898 7.79147 153.18L7.20439 152.985C7.33486 153.311 7.46532 153.637 7.53055 153.963C10.0093 160.356 13.9231 165.77 18.8154 169.292C19.4677 169.749 20.5767 170.336 22.0117 171.054C19.5982 166.226 17.2499 161.334 14.8364 156.507C14.7059 156.246 14.5755 155.985 14.445 155.724Z" fill="url(#paint16_linear_40_6108)"/>
<path d="M7.98452 151.882C10.2676 152.664 12.5507 153.447 14.7685 154.165C14.9642 153.969 15.2903 153.904 15.5513 153.838C16.7254 150.251 17.9648 146.728 19.2042 143.141C19.2694 142.945 19.3346 142.684 19.3999 142.488C17.8343 139.227 16.2036 136.031 14.638 132.834C12.8116 129.116 10.9851 125.398 9.15867 121.68C8.18022 121.941 7.13652 121.484 6.67991 120.571C6.67991 120.571 6.67991 120.571 6.67991 120.506C6.67991 120.506 6.67991 120.506 6.67991 120.44C6.2233 119.332 6.67991 118.157 7.7236 117.57C8.76729 116.983 10.1371 117.57 10.659 118.549C11.1808 119.462 10.7894 120.636 10.0067 121.223C11.5722 124.354 13.0725 127.42 14.638 130.551C12.355 124.093 10.5937 116.07 8.83252 105.829C8.5716 104.198 8.37591 103.089 8.11499 102.437C7.39745 100.48 4.26638 103.154 2.8313 105.176C-0.364997 109.677 -0.495455 115.94 0.678696 121.81C2.37469 130.421 4.07069 142.749 6.81037 151.36L8.11499 151.816L7.98452 151.882Z" fill="url(#paint17_linear_40_6108)"/>
<path d="M7.98673 118.419C7.33442 118.746 7.0735 119.528 7.39965 120.181C7.72581 120.833 8.50858 121.094 9.16088 120.768C9.81319 120.442 10.0741 119.594 9.74796 119.006C9.42181 118.354 8.57381 118.093 7.98673 118.419Z" fill="url(#paint18_linear_40_6108)"/>
<path d="M25.4599 142.62C28.3301 145.751 31.7221 148.099 35.4402 150.121H35.5054C26.3079 141.968 21.9375 129.378 18.2846 108.309C17.567 104.134 16.9147 103.155 15.7406 103.677C12.1529 105.243 12.9356 110.135 13.4575 113.136C15.4144 123.507 18.6759 135.118 25.5251 142.62H25.4599Z" fill="url(#paint19_linear_40_6108)"/>
<path d="M25.7941 151.81C25.0113 152.201 24.7504 153.114 25.0765 153.897C25.4679 154.68 26.3811 155.006 27.1639 154.615C27.9467 154.223 28.2076 153.31 27.8814 152.527C27.4901 151.744 26.5768 151.483 25.7941 151.81Z" fill="url(#paint20_linear_40_6108)"/>
<path d="M59.8438 173.862C59.5829 173.406 59.3872 172.949 59.5829 172.362C59.8438 171.579 60.1047 170.796 60.3656 170.014C61.4746 166.687 62.6487 163.36 63.7576 159.968L56.3866 158.403C55.6038 160.751 54.7558 163.164 53.973 165.513C53.7774 166.035 53.5817 166.622 53.4512 167.144C54.0383 168.318 54.6253 169.492 55.2124 170.666C57.8217 175.95 60.4309 181.299 63.0401 186.582C63.6924 186.778 65.2579 187.365 66.693 187.822C65.1927 184.821 63.6924 181.755 62.1921 178.755C61.3441 177.059 60.5613 175.363 59.7133 173.732L59.8438 173.862Z" fill="url(#paint21_linear_40_6108)"/>
<path d="M26.2431 127.033C27.1563 126.837 28.1348 127.359 28.5914 128.207C29.1132 129.121 28.7218 130.295 27.9391 130.882C29.4394 134.013 31.0049 137.079 32.5052 140.21C33.288 141.775 34.0707 143.341 34.8535 144.972C37.0061 147.776 39.7458 150.19 42.9421 151.821L43.3335 152.016L44.051 152.343L44.4424 152.473L44.051 152.147L43.8553 152.016L43.5292 151.756L43.2683 151.495L42.6812 150.973L42.5507 150.842L42.2898 150.581L42.1593 150.451C34.3969 142.754 31.3311 131.73 27.6781 113.139C27.5477 112.487 27.4172 111.834 27.2868 111.117C27.2868 111.117 27.2868 111.117 27.2868 111.052C26.8301 108.573 26.3735 107.529 25.5908 107.529C25.5255 107.529 25.4603 107.529 25.3298 107.529C25.2646 107.529 25.1994 107.529 25.0689 107.66C25.0037 107.66 24.8732 107.79 24.808 107.855C24.6775 107.921 24.6123 107.986 24.4818 108.051C24.2209 108.247 24.0252 108.508 23.8295 108.703C22.3292 110.465 23.0468 114.444 23.5034 116.466C24.2209 119.988 25.0689 123.576 26.1778 127.033H26.2431Z" fill="url(#paint22_linear_40_6108)"/>
<path d="M198.526 128.6C198.265 129.253 198.461 130.036 199.048 130.362C199.374 129.579 199.635 128.731 199.896 127.883C199.374 127.818 198.787 128.079 198.526 128.6Z" fill="url(#paint23_linear_40_6108)"/>
<path d="M160.822 154.817L168.454 151.099C168.911 150.186 169.367 149.272 169.824 148.359C170.607 146.794 171.39 145.163 172.172 143.597C171.194 142.749 170.802 141.314 171.39 140.14C172.107 138.836 173.803 138.118 175.173 138.836C176.543 139.553 177.065 141.119 176.477 142.554C176.477 142.554 176.477 142.554 176.477 142.619C176.477 142.619 176.477 142.619 176.477 142.684C175.825 143.793 174.521 144.38 173.346 144.119C172.368 146.141 171.324 148.163 170.346 150.186L173.346 148.751C176.412 147.25 180.457 144.706 182.87 141.51V141.445C181.957 138.64 180.978 135.9 180.065 133.095C179.869 133.095 178.565 133.421 177.847 133.617C175.825 134.269 171.324 136.226 168.65 137.27C164.41 138.966 160.366 140.401 156.452 141.836C157.039 143.532 157.626 145.228 158.213 146.989C159.126 149.599 159.974 152.273 160.887 154.882L160.822 154.817Z" fill="url(#paint24_linear_40_6108)"/>
<path d="M184.56 138.449C184.886 137.666 185.016 136.818 185.082 135.97C185.212 133.948 182.864 133.035 182.668 132.97C183.255 134.731 183.907 136.558 184.494 138.384C184.494 138.384 184.494 138.384 184.494 138.449H184.56Z" fill="url(#paint25_linear_40_6108)"/>
<path d="M175.366 142.031C175.692 141.248 175.431 140.269 174.648 139.943C173.866 139.617 172.887 139.878 172.561 140.661C172.235 141.444 172.496 142.422 173.278 142.748C174.061 143.14 174.974 142.748 175.366 142.031Z" fill="url(#paint26_linear_40_6108)"/>
<path d="M164.21 172.752C162.84 168.772 161.535 164.859 160.165 160.945C160.165 160.814 160.1 160.684 160.035 160.553L156.317 161.336C155.012 161.597 154.23 161.336 153.838 160.814C153.186 161.271 152.403 161.467 151.62 161.271C150.25 164.076 148.815 166.881 147.446 169.751C146.467 171.708 145.554 173.665 144.575 175.556C144.38 175.948 144.249 176.339 143.858 176.47C143.206 176.665 142.618 176.926 141.966 177.122C138.313 178.361 134.66 179.601 131.073 180.84C130.681 181.623 130.29 182.406 129.898 183.188C129.898 183.319 129.964 183.449 130.029 183.645C132.182 190.038 134.334 196.43 136.552 202.823C136.943 203.932 137.335 205.106 137.726 206.215C139.422 201.257 142.097 197.735 145.423 195.06C145.032 193.951 144.706 192.843 144.314 191.734C144.314 191.603 144.184 191.407 144.184 191.277C144.184 191.081 144.249 190.886 144.38 190.755C144.641 190.168 144.902 189.646 145.228 189.059C146.271 186.907 147.38 184.689 148.424 182.536C150.055 179.209 151.686 175.883 153.316 172.556C152.338 171.708 151.946 170.338 152.534 169.099C153.251 167.729 154.947 167.076 156.317 167.794C157.687 168.512 158.209 170.077 157.621 171.512C157.621 171.512 157.621 171.512 157.621 171.577C157.621 171.577 157.621 171.577 157.621 171.643C156.969 172.752 155.665 173.339 154.49 173.078C153.186 175.687 151.881 178.361 150.577 180.971C148.881 184.363 147.25 187.755 145.554 191.212L146.206 193.169C146.337 193.495 146.467 193.886 146.532 194.212C149.402 192.19 152.664 190.625 156.121 189.255C157.1 187.298 158.078 185.341 158.991 183.384C160.753 179.862 162.449 176.339 164.21 172.817V172.752Z" fill="url(#paint27_linear_40_6108)"/>
<path d="M152.992 157.036C152.209 156.709 151.231 156.97 150.905 157.753C150.579 158.536 150.839 159.514 151.622 159.841C152.34 160.167 153.122 159.971 153.579 159.384C153.579 159.123 153.71 158.862 153.905 158.601C153.905 157.949 153.644 157.297 153.057 157.036H152.992Z" fill="url(#paint28_linear_40_6108)"/>
<path d="M171.193 158.275C172.041 160.753 172.89 163.167 173.672 165.646C175.107 162.71 176.542 159.775 178.043 156.84L171.193 158.275Z" fill="url(#paint29_linear_40_6108)"/>
<path d="M180.39 174.251C183.782 173.077 187.174 171.968 190.501 170.794L192.393 166.88C191.871 165.315 191.284 163.684 190.762 162.118C189.914 159.64 189.066 157.226 188.283 154.747C188.283 154.682 188.283 154.617 188.218 154.552C187.24 154.813 186.131 155.074 185.022 155.334L181.173 156.117C179.934 158.596 178.76 161.075 177.52 163.554C175.237 168.185 172.954 172.881 170.606 177.513C173.867 176.404 177.129 175.295 180.39 174.186V174.251Z" fill="url(#paint30_linear_40_6108)"/>
<path d="M127.423 183.649C127.097 182.67 127.815 181.692 128.271 180.778C128.859 179.604 129.446 178.43 130.033 177.256C129.511 175.69 128.989 174.125 128.467 172.559C127.228 168.841 125.988 165.188 124.684 161.47C114.573 177.321 122.27 198.26 135.382 206.936C133.425 201.261 131.533 195.586 129.576 189.845C128.859 187.758 128.141 185.671 127.423 183.583V183.649Z" fill="url(#paint31_linear_40_6108)"/>
<path d="M156.452 170.993C156.778 170.21 156.517 169.232 155.734 168.906C154.952 168.58 153.973 168.841 153.647 169.623C153.321 170.406 153.582 171.385 154.364 171.711C155.147 172.102 156.06 171.711 156.452 170.993Z" fill="url(#paint32_linear_40_6108)"/>
<path d="M141.318 147.84C141.71 147.645 142.101 147.449 142.558 147.253C142.166 147.449 141.71 147.645 141.318 147.84Z" fill="url(#paint33_linear_40_6108)"/>
<path d="M132.51 176.736C132.771 177.584 132.314 178.432 131.857 179.149C135.641 177.844 139.489 176.54 143.273 175.3C143.925 173.996 144.577 172.691 145.23 171.387C145.425 170.93 145.621 170.539 145.882 170.082C145.36 168.647 144.903 167.147 144.382 165.712C142.881 161.211 141.316 156.71 139.815 152.209C139.685 151.883 139.489 151.557 139.685 151.23C140.076 150.448 140.468 149.6 140.859 148.817C140.99 148.491 141.185 148.165 141.316 147.904C140.663 148.23 139.946 148.556 139.294 148.882C133.684 151.687 129.509 155.144 126.443 158.993C127.813 163.037 129.183 167.081 130.553 171.126C131.205 173.017 131.857 174.909 132.51 176.801V176.736Z" fill="url(#paint34_linear_40_6108)"/>
<path d="M143.015 158.994C144.124 162.321 145.298 165.648 146.407 169.04C147.776 166.235 149.146 163.43 150.516 160.69C149.538 159.842 149.146 158.472 149.733 157.233C150.451 155.928 152.147 155.211 153.517 155.928C154.234 156.32 154.756 156.907 154.952 157.624C155.213 157.494 155.539 157.298 155.8 157.168C156.256 156.907 156.778 156.711 157.17 156.515L158.474 155.863C156.974 151.427 155.474 146.992 153.973 142.556C149.929 144.056 146.08 145.492 142.493 147.122C141.775 148.557 141.123 149.927 140.405 151.362C141.253 153.841 142.101 156.385 142.949 158.864L143.015 158.994Z" fill="url(#paint35_linear_40_6108)"/>
<path d="M210.069 154.165C209.939 153.839 209.874 153.512 209.743 153.186C208.895 150.707 208.047 148.163 207.199 145.685C206.873 144.837 206.612 143.989 206.286 143.075C206.156 142.749 206.09 142.488 206.286 142.162C206.416 141.901 206.547 141.64 206.677 141.314C204.525 144.445 202.046 147.055 199.045 149.338C196.306 151.425 194.349 152.534 192.457 153.251C191.413 153.578 190.305 153.969 189.065 154.36C189.13 154.621 189.261 154.882 189.326 155.143C190.565 158.731 191.74 162.319 192.979 165.906C194.675 162.384 196.436 158.927 198.132 155.469C197.154 154.621 196.762 153.251 197.349 152.012C198.067 150.707 199.763 149.99 201.133 150.707C202.503 151.425 203.024 152.991 202.437 154.426C202.437 154.426 202.437 154.426 202.437 154.491C202.437 154.491 202.437 154.491 202.437 154.556C201.785 155.665 200.48 156.252 199.306 155.991C198.263 158.079 197.219 160.231 196.175 162.319C195.001 164.667 193.892 166.95 192.718 169.298C192.392 169.95 192.066 170.603 191.74 171.32C191.609 171.646 191.413 171.907 191.087 171.973C187.108 173.342 183.129 174.647 179.215 176.017C176.084 177.061 173.018 178.104 169.953 179.148C168.909 181.301 167.865 183.388 166.821 185.475C167.213 185.345 167.604 185.214 167.996 185.019C178.563 181.235 192.457 176.213 200.872 172.56C201.785 170.733 202.633 168.907 203.546 167.08C205.634 162.84 207.721 158.666 209.743 154.491C209.808 154.295 209.939 154.165 210.069 154.034V154.165Z" fill="url(#paint36_linear_40_6108)"/>
<path d="M212.092 155.398C212.092 155.529 212.092 155.594 211.962 155.724C211.831 155.985 211.701 156.246 211.57 156.507C209.157 161.334 206.808 166.226 204.395 171.054C205.83 170.401 206.939 169.749 207.591 169.292C212.483 165.77 216.397 160.356 218.876 153.963C219.006 153.637 219.137 153.311 219.202 152.985L218.615 153.18C216.462 153.898 214.245 154.681 212.092 155.398Z" fill="url(#paint37_linear_40_6108)"/>
<path d="M223.702 105.31C222.267 103.288 219.136 100.613 218.418 102.57C218.157 103.222 217.961 104.331 217.701 105.962C215.939 116.268 214.178 124.292 211.895 130.684C213.461 127.553 214.961 124.487 216.526 121.356C215.744 120.704 215.352 119.595 215.874 118.682C216.396 117.638 217.701 117.116 218.809 117.703C219.853 118.291 220.31 119.465 219.853 120.574C219.853 120.574 219.853 120.574 219.853 120.639C219.853 120.639 219.853 120.639 219.853 120.704C219.331 121.552 218.288 122.074 217.374 121.813C215.548 125.531 213.722 129.249 211.895 132.967C210.33 136.229 208.699 139.425 207.133 142.622C207.198 142.817 207.264 143.078 207.329 143.274C208.568 146.862 209.742 150.384 210.982 153.972C211.243 153.972 211.504 154.102 211.765 154.298C214.048 153.515 216.265 152.732 218.549 152.015L219.853 151.558C222.593 142.948 224.224 130.619 225.985 122.009C227.159 116.138 227.029 109.876 223.832 105.375L223.702 105.31Z" fill="url(#paint38_linear_40_6108)"/>
<path d="M219.074 120.181C219.4 119.528 219.139 118.68 218.487 118.419C217.834 118.093 216.986 118.354 216.726 119.006C216.465 119.659 216.66 120.507 217.313 120.768C217.965 121.094 218.748 120.768 219.074 120.181Z" fill="url(#paint39_linear_40_6108)"/>
<path d="M190.96 150.121C194.678 148.099 198.07 145.751 200.94 142.62C207.79 135.184 210.986 123.507 213.008 113.136C213.595 110.135 214.313 105.243 210.725 103.677C209.551 103.155 208.899 104.134 208.181 108.309C204.528 129.378 200.158 141.968 190.96 150.121Z" fill="url(#paint40_linear_40_6108)"/>
<path d="M201.331 153.897C201.658 153.114 201.397 152.136 200.614 151.81C199.831 151.483 198.853 151.744 198.527 152.527C198.2 153.31 198.461 154.288 199.244 154.615C200.027 155.006 200.94 154.615 201.331 153.897Z" fill="url(#paint41_linear_40_6108)"/>
<path d="M172.891 167.21C172.696 166.688 172.5 166.101 172.37 165.579C171.587 163.231 170.739 160.818 169.956 158.469L162.585 160.035C163.694 163.362 164.868 166.688 165.977 170.08C166.238 170.863 166.499 171.646 166.76 172.429C166.955 173.016 166.76 173.407 166.499 173.929C165.651 175.625 164.868 177.321 164.02 178.952C162.52 181.952 161.019 185.018 159.519 188.019C161.019 187.497 162.52 186.975 163.172 186.779C165.781 181.43 168.391 176.147 171 170.798C171.587 169.624 172.174 168.45 172.761 167.275L172.891 167.21Z" fill="url(#paint42_linear_40_6108)"/>
<path d="M183.916 150.575L183.655 150.836L183.524 150.966L182.937 151.488L182.676 151.749L182.35 152.01L182.154 152.14L181.763 152.467L182.154 152.336L182.872 152.01L183.263 151.814C186.394 150.249 189.199 147.77 191.352 145.03C192.135 143.465 192.917 141.834 193.7 140.269C195.201 137.137 196.766 134.072 198.266 130.941C197.484 130.288 197.157 129.179 197.614 128.266C198.071 127.418 199.049 126.896 199.962 127.092C201.071 123.635 201.919 120.047 202.637 116.525C203.028 114.437 203.811 110.523 202.311 108.762C202.115 108.566 201.854 108.306 201.658 108.11C201.528 108.045 201.463 107.979 201.332 107.914C201.267 107.914 201.137 107.784 201.071 107.718C201.006 107.718 200.876 107.653 200.81 107.588C200.745 107.588 200.615 107.588 200.549 107.588C199.767 107.588 199.31 108.632 198.854 111.11C198.854 111.11 198.854 111.11 198.854 111.176C198.723 111.828 198.593 112.545 198.462 113.198C194.809 131.789 191.809 142.878 183.981 150.51L183.85 150.64L183.916 150.575Z" fill="url(#paint43_linear_40_6108)"/>
<defs>
<linearGradient id="paint0_linear_40_6108" x1="149.925" y1="135.313" x2="149.925" y2="14.0493" gradientUnits="userSpaceOnUse">
<stop stop-color="#3A64AE"/>
<stop offset="0.6" stop-color="#4AC6ED"/>
</linearGradient>
<linearGradient id="paint1_linear_40_6108" x1="89.98" y1="133.485" x2="89.98" y2="-0.107497" gradientUnits="userSpaceOnUse">
<stop stop-color="#DF4C26"/>
<stop offset="0.2" stop-color="#F05F23"/>
<stop offset="0.3" stop-color="#EF982E"/>
<stop offset="0.4" stop-color="#EEC336"/>
<stop offset="0.5" stop-color="#EEDE3C"/>
<stop offset="0.6" stop-color="#EEE83E"/>
</linearGradient>
<linearGradient id="paint2_linear_40_6108" x1="8.24949" y1="104.204" x2="85.6783" y2="204.92" gradientUnits="userSpaceOnUse">
<stop stop-color="#DF4C26"/>
<stop offset="0.2" stop-color="#F05F23"/>
<stop offset="0.6" stop-color="#EEE83E"/>
</linearGradient>
<linearGradient id="paint3_linear_40_6108" x1="20.6399" y1="94.6769" x2="98.0686" y2="195.393" gradientUnits="userSpaceOnUse">
<stop stop-color="#DF4C26"/>
<stop offset="0.2" stop-color="#F05F23"/>
<stop offset="0.6" stop-color="#EEE83E"/>
</linearGradient>
<linearGradient id="paint4_linear_40_6108" x1="14.7018" y1="99.2456" x2="92.1305" y2="199.962" gradientUnits="userSpaceOnUse">
<stop stop-color="#DF4C26"/>
<stop offset="0.2" stop-color="#F05F23"/>
<stop offset="0.6" stop-color="#EEE83E"/>
</linearGradient>
<linearGradient id="paint5_linear_40_6108" x1="18.0929" y1="96.6302" x2="95.5217" y2="197.411" gradientUnits="userSpaceOnUse">
<stop stop-color="#DF4C26"/>
<stop offset="0.2" stop-color="#F05F23"/>
<stop offset="0.6" stop-color="#EEE83E"/>
</linearGradient>
<linearGradient id="paint6_linear_40_6108" x1="16.0732" y1="98.1994" x2="93.502" y2="198.915" gradientUnits="userSpaceOnUse">
<stop stop-color="#DF4C26"/>
<stop offset="0.2" stop-color="#F05F23"/>
<stop offset="0.6" stop-color="#EEE83E"/>
</linearGradient>
<linearGradient id="paint7_linear_40_6108" x1="23.4468" y1="92.5225" x2="100.876" y2="193.304" gradientUnits="userSpaceOnUse">
<stop stop-color="#DF4C26"/>
<stop offset="0.2" stop-color="#F05F23"/>
<stop offset="0.6" stop-color="#EEE83E"/>
</linearGradient>
<linearGradient id="paint8_linear_40_6108" x1="9.09346" y1="103.546" x2="86.5222" y2="204.262" gradientUnits="userSpaceOnUse">
<stop stop-color="#DF4C26"/>
<stop offset="0.2" stop-color="#F05F23"/>
<stop offset="0.6" stop-color="#EEE83E"/>
</linearGradient>
<linearGradient id="paint9_linear_40_6108" x1="-0.104719" y1="110.593" x2="77.324" y2="211.374" gradientUnits="userSpaceOnUse">
<stop stop-color="#DF4C26"/>
<stop offset="0.2" stop-color="#F05F23"/>
<stop offset="0.6" stop-color="#EEE83E"/>
</linearGradient>
<linearGradient id="paint10_linear_40_6108" x1="25.0086" y1="91.3472" x2="102.437" y2="192.063" gradientUnits="userSpaceOnUse">
<stop stop-color="#DF4C26"/>
<stop offset="0.2" stop-color="#F05F23"/>
<stop offset="0.6" stop-color="#EEE83E"/>
</linearGradient>
<linearGradient id="paint11_linear_40_6108" x1="15.9399" y1="98.2613" x2="93.3683" y2="198.977" gradientUnits="userSpaceOnUse">
<stop stop-color="#DF4C26"/>
<stop offset="0.2" stop-color="#F05F23"/>
<stop offset="0.6" stop-color="#EEE83E"/>
</linearGradient>
<linearGradient id="paint12_linear_40_6108" x1="35.2505" y1="83.4571" x2="112.68" y2="184.174" gradientUnits="userSpaceOnUse">
<stop stop-color="#DF4C26"/>
<stop offset="0.2" stop-color="#F05F23"/>
<stop offset="0.6" stop-color="#EEE83E"/>
</linearGradient>
<linearGradient id="paint13_linear_40_6108" x1="30.1635" y1="87.3682" x2="107.657" y2="188.084" gradientUnits="userSpaceOnUse">
<stop stop-color="#DF4C26"/>
<stop offset="0.2" stop-color="#F05F23"/>
<stop offset="0.6" stop-color="#EEE83E"/>
</linearGradient>
<linearGradient id="paint14_linear_40_6108" x1="27.884" y1="89.1285" x2="105.313" y2="189.845" gradientUnits="userSpaceOnUse">
<stop stop-color="#DF4C26"/>
<stop offset="0.2" stop-color="#F05F23"/>
<stop offset="0.6" stop-color="#EEE83E"/>
</linearGradient>
<linearGradient id="paint15_linear_40_6108" x1="-5.77813" y1="114.961" x2="71.6506" y2="215.677" gradientUnits="userSpaceOnUse">
<stop stop-color="#DF4C26"/>
<stop offset="0.2" stop-color="#F05F23"/>
<stop offset="0.6" stop-color="#EEE83E"/>
</linearGradient>
<linearGradient id="paint16_linear_40_6108" x1="-15.1045" y1="122.131" x2="62.3895" y2="222.847" gradientUnits="userSpaceOnUse">
<stop stop-color="#DF4C26"/>
<stop offset="0.2" stop-color="#F05F23"/>
<stop offset="0.6" stop-color="#EEE83E"/>
</linearGradient>
<linearGradient id="paint17_linear_40_6108" x1="-3.30037" y1="113.135" x2="74.1284" y2="213.851" gradientUnits="userSpaceOnUse">
<stop stop-color="#DF4C26"/>
<stop offset="0.2" stop-color="#F05F23"/>
<stop offset="0.6" stop-color="#EEE83E"/>
</linearGradient>
<linearGradient id="paint18_linear_40_6108" x1="1.00704" y1="109.809" x2="78.4358" y2="210.525" gradientUnits="userSpaceOnUse">
<stop stop-color="#DF4C26"/>
<stop offset="0.2" stop-color="#F05F23"/>
<stop offset="0.6" stop-color="#EEE83E"/>
</linearGradient>
<linearGradient id="paint19_linear_40_6108" x1="7.13011" y1="105.047" x2="84.5588" y2="205.763" gradientUnits="userSpaceOnUse">
<stop stop-color="#DF4C26"/>
<stop offset="0.2" stop-color="#F05F23"/>
<stop offset="0.6" stop-color="#EEE83E"/>
</linearGradient>
<linearGradient id="paint20_linear_40_6108" x1="-3.95108" y1="113.584" x2="73.4778" y2="214.3" gradientUnits="userSpaceOnUse">
<stop stop-color="#DF4C26"/>
<stop offset="0.2" stop-color="#F05F23"/>
<stop offset="0.6" stop-color="#EEE83E"/>
</linearGradient>
<linearGradient id="paint21_linear_40_6108" x1="9.55099" y1="103.218" x2="86.9797" y2="203.934" gradientUnits="userSpaceOnUse">
<stop stop-color="#DF4C26"/>
<stop offset="0.2" stop-color="#F05F23"/>
<stop offset="0.6" stop-color="#EEE83E"/>
</linearGradient>
<linearGradient id="paint22_linear_40_6108" x1="11.6314" y1="101.593" x2="89.0601" y2="202.309" gradientUnits="userSpaceOnUse">
<stop stop-color="#DF4C26"/>
<stop offset="0.2" stop-color="#F05F23"/>
<stop offset="0.6" stop-color="#EEE83E"/>
</linearGradient>
<linearGradient id="paint23_linear_40_6108" x1="219.726" y1="103.095" x2="136.622" y2="207.594" gradientUnits="userSpaceOnUse">
<stop stop-color="#3A64AE"/>
<stop offset="0.6" stop-color="#4AC6ED"/>
</linearGradient>
<linearGradient id="paint24_linear_40_6108" x1="207.853" y1="93.5655" x2="124.75" y2="198.13" gradientUnits="userSpaceOnUse">
<stop stop-color="#3A64AE"/>
<stop offset="0.6" stop-color="#4AC6ED"/>
</linearGradient>
<linearGradient id="paint25_linear_40_6108" x1="213.522" y1="98.1367" x2="130.419" y2="202.636" gradientUnits="userSpaceOnUse">
<stop stop-color="#3A64AE"/>
<stop offset="0.6" stop-color="#4AC6ED"/>
</linearGradient>
<linearGradient id="paint26_linear_40_6108" x1="210.33" y1="95.5865" x2="127.226" y2="200.086" gradientUnits="userSpaceOnUse">
<stop stop-color="#3A64AE"/>
<stop offset="0.6" stop-color="#4AC6ED"/>
</linearGradient>
<linearGradient id="paint27_linear_40_6108" x1="213.002" y1="97.7363" x2="129.899" y2="202.236" gradientUnits="userSpaceOnUse">
<stop stop-color="#3A64AE"/>
<stop offset="0.6" stop-color="#4AC6ED"/>
</linearGradient>
<linearGradient id="paint28_linear_40_6108" x1="205.437" y1="91.6745" x2="122.333" y2="196.174" gradientUnits="userSpaceOnUse">
<stop stop-color="#3A64AE"/>
<stop offset="0.6" stop-color="#4AC6ED"/>
</linearGradient>
<linearGradient id="paint29_linear_40_6108" x1="219.464" y1="102.829" x2="136.36" y2="207.328" gradientUnits="userSpaceOnUse">
<stop stop-color="#3A64AE"/>
<stop offset="0.6" stop-color="#4AC6ED"/>
</linearGradient>
<linearGradient id="paint30_linear_40_6108" x1="228.4" y1="109.934" x2="145.296" y2="214.433" gradientUnits="userSpaceOnUse">
<stop stop-color="#3A64AE"/>
<stop offset="0.6" stop-color="#4AC6ED"/>
</linearGradient>
<linearGradient id="paint31_linear_40_6108" x1="204.33" y1="90.7601" x2="121.227" y2="195.325" gradientUnits="userSpaceOnUse">
<stop stop-color="#3A64AE"/>
<stop offset="0.6" stop-color="#4AC6ED"/>
</linearGradient>
<linearGradient id="paint32_linear_40_6108" x1="212.877" y1="97.609" x2="129.773" y2="202.109" gradientUnits="userSpaceOnUse">
<stop stop-color="#3A64AE"/>
<stop offset="0.6" stop-color="#4AC6ED"/>
</linearGradient>
<linearGradient id="paint33_linear_40_6108" x1="193.763" y1="82.4134" x2="110.659" y2="186.913" gradientUnits="userSpaceOnUse">
<stop stop-color="#3A64AE"/>
<stop offset="0.6" stop-color="#4AC6ED"/>
</linearGradient>
<linearGradient id="paint34_linear_40_6108" x1="198.98" y1="86.5216" x2="115.876" y2="191.021" gradientUnits="userSpaceOnUse">
<stop stop-color="#3A64AE"/>
<stop offset="0.6" stop-color="#4AC6ED"/>
</linearGradient>
<linearGradient id="paint35_linear_40_6108" x1="201.005" y1="88.1538" x2="117.901" y2="192.653" gradientUnits="userSpaceOnUse">
<stop stop-color="#3A64AE"/>
<stop offset="0.6" stop-color="#4AC6ED"/>
</linearGradient>
<linearGradient id="paint36_linear_40_6108" x1="233.944" y1="114.374" x2="150.905" y2="218.873" gradientUnits="userSpaceOnUse">
<stop stop-color="#3A64AE"/>
<stop offset="0.6" stop-color="#4AC6ED"/>
</linearGradient>
<linearGradient id="paint37_linear_40_6108" x1="242.946" y1="121.544" x2="159.842" y2="226.043" gradientUnits="userSpaceOnUse">
<stop stop-color="#3A64AE"/>
<stop offset="0.6" stop-color="#4AC6ED"/>
</linearGradient>
<linearGradient id="paint38_linear_40_6108" x1="230.942" y1="112.028" x2="147.839" y2="216.528" gradientUnits="userSpaceOnUse">
<stop stop-color="#3A64AE"/>
<stop offset="0.6" stop-color="#4AC6ED"/>
</linearGradient>
<linearGradient id="paint39_linear_40_6108" x1="226.641" y1="108.57" x2="143.537" y2="213.069" gradientUnits="userSpaceOnUse">
<stop stop-color="#3A64AE"/>
<stop offset="0.6" stop-color="#4AC6ED"/>
</linearGradient>
<linearGradient id="paint40_linear_40_6108" x1="220.705" y1="103.808" x2="137.601" y2="208.307" gradientUnits="userSpaceOnUse">
<stop stop-color="#3A64AE"/>
<stop offset="0.6" stop-color="#4AC6ED"/>
</linearGradient>
<linearGradient id="paint41_linear_40_6108" x1="231.99" y1="112.802" x2="148.886" y2="217.301" gradientUnits="userSpaceOnUse">
<stop stop-color="#3A64AE"/>
<stop offset="0.6" stop-color="#4AC6ED"/>
</linearGradient>
<linearGradient id="paint42_linear_40_6108" x1="219.205" y1="102.632" x2="136.101" y2="207.131" gradientUnits="userSpaceOnUse">
<stop stop-color="#3A64AE"/>
<stop offset="0.6" stop-color="#4AC6ED"/>
</linearGradient>
<linearGradient id="paint43_linear_40_6108" x1="216.401" y1="100.413" x2="133.297" y2="204.912" gradientUnits="userSpaceOnUse">
<stop stop-color="#3A64AE"/>
<stop offset="0.6" stop-color="#4AC6ED"/>
</linearGradient>
</defs>
</svg>
